# xmcd
#
# Track frame offsets:
#	150
#	16535
#	28845
#	39255
#	54510
#	75085
#	84170
#	100802
#	117475
#	137095
#	154940
#	165237
#	182187
#
# Disc length: 2634 seconds
#
# Revision: 0
# Processed by: cddbd v1.4PL0 Copyright (c) Steve Scherf et al.
# Submitted via: EasyCDDAExtractor 4.6.0.1
#
DISCID=8b0a480d
DTITLE=Marley's Ghost - Ghost Country
DYEAR=1900
DGENRE=country
TTITLE0=One More Shot
TTITLE1=Trouble on the Line
TTITLE2=Window Shopping
TTITLE3=Lonely Enough to Know
TTITLE4=Blues for Sportin' Life
TTITLE5=Run Mountain
TTITLE6=Better Come Dancing
TTITLE7=Molly and Tenbrooks
TTITLE8=Gospel Plow
TTITLE9=Two Bits
TTITLE10=Lonely Night
TTITLE11=The Way I Am
TTITLE12=Dark as a Dungeon
EXTD=
EXTT0=
EXTT1=
EXTT2=
EXTT3=
EXTT4=
EXTT5=
EXTT6=
EXTT7=
EXTT8=
EXTT9=
EXTT10=
EXTT11=
EXTT12=
PLAYORDER=
